# Blender 3.4.1
# www.blender.org
mtllib bed_table_5.mtl
o Cube.001
v 1.142381 1.060000 -1.059995
v 1.142381 -0.940000 -1.060005
v 1.142381 1.060000 1.162380
v 1.142381 -0.940000 1.162380
v -1.142381 1.060000 -1.059995
v -1.142381 -0.940000 -1.060005
v -1.142381 1.060000 1.162380
v -1.142381 -0.940000 1.162380
v 1.134115 0.044566 -1.137332
v 1.134115 -0.044566 -1.137332
v 1.134115 0.044566 1.170478
v 1.134115 -0.044566 1.170478
v -1.134115 0.044566 -1.137332
v -1.134115 -0.044566 -1.137332
v -1.134115 0.044566 1.170478
v -1.134115 -0.044566 1.170478
v 1.180904 1.201508 1.264802
v 1.180904 1.048202 1.264802
v -1.270800 1.201508 1.264802
v -1.270800 1.048202 1.264802
v 1.180904 1.201509 -1.166560
v 1.180904 1.048203 -1.166560
v -1.270800 1.201509 -1.166560
v -1.270800 1.048203 -1.166560
v 1.161824 -0.929887 -1.078223
v 1.161824 -0.929884 -1.156686
v 1.161824 1.074487 -1.078221
v 1.161824 1.074490 -1.156684
v -1.117481 -0.929887 -1.078223
v -1.117481 -0.929884 -1.156686
v -1.117481 1.074487 -1.078221
v -1.117481 1.074490 -1.156684
v 1.145937 1.079855 1.246572
v 1.145937 1.079855 1.162379
v 1.145937 -0.941181 1.246572
v 1.145937 -0.941181 1.162379
v -1.122615 1.079855 1.246572
v -1.122615 1.079855 1.162379
v -1.122615 -0.941181 1.246572
v -1.122615 -0.941181 1.162379
v 1.201915 -0.914153 -1.147659
v 1.201915 -1.015642 -1.147659
v -1.268339 -0.914153 -1.147659
v -1.268339 -1.015642 -1.147659
v 1.201915 -0.914155 1.248299
v 1.201915 -1.015644 1.248299
v -1.268339 -0.914155 1.248299
v -1.268339 -1.015644 1.248299
v -1.264233 -0.926265 1.244914
v -1.117481 -0.926265 1.244914
v -1.264232 -0.926265 -1.147861
v -1.117481 -0.926265 -1.147861
v -1.264233 1.048202 1.244914
v -1.117481 1.048202 1.244914
v -1.264233 1.048203 -1.147861
v -1.117481 1.048203 -1.147861
vn -0.0000 1.0000 -0.0000
vn -0.0000 -0.0000 1.0000
vn -1.0000 -0.0000 -0.0000
vn -0.0000 -1.0000 -0.0000
vn -0.0000 -0.0000 -1.0000
vn 1.0000 -0.0000 -0.0000
vt 0.625000 0.500000
vt 0.375000 0.500000
vt 0.625000 0.750000
vt 0.375000 0.750000
vt 0.875000 0.500000
vt 0.625000 0.250000
vt 0.125000 0.500000
vt 0.375000 0.250000
vt 0.875000 0.750000
vt 0.625000 1.000000
vt 0.625000 0.000000
vt 0.375000 1.000000
vt 0.375000 0.000000
vt 0.125000 0.750000
vt 0.625000 0.500000
vt 0.625000 0.750000
vt 0.375000 0.750000
vt 0.625000 0.000000
vt 0.375000 0.750000
vt 0.125000 0.750000
vt 0.625000 0.500000
vt 0.625000 1.000000
vt 0.625000 0.750000
vt 0.375000 0.500000
vt 0.375000 1.000000
vt 0.625000 0.250000
vt 0.625000 0.500000
vt 0.375000 0.500000
vt 0.875000 0.500000
vt 0.375000 0.000000
vt 0.375000 0.500000
vt 0.125000 0.500000
vt 0.625000 0.250000
vt 0.625000 0.750000
vt 0.875000 0.750000
vt 0.375000 0.250000
vt 0.375000 0.750000
vt 0.125000 0.500000
vt 0.625000 0.000000
vt 0.875000 0.750000
vt 0.375000 0.000000
vt 0.625000 0.750000
vt 0.625000 0.250000
vt 0.625000 0.500000
vt 0.125000 0.750000
vt 0.375000 0.500000
vt 0.375000 0.250000
vt 0.625000 1.000000
vt 0.625000 0.500000
vt 0.375000 0.500000
vt 0.875000 0.500000
vt 0.375000 0.750000
vt 0.625000 0.500000
vt 0.375000 0.500000
vt 0.625000 0.250000
vt 0.625000 0.750000
vt 0.375000 0.750000
vt 0.375000 0.250000
vt 0.375000 0.750000
vt 0.375000 1.000000
vt 0.375000 0.000000
vt 0.375000 1.000000
vt 0.125000 0.750000
vt 0.625000 0.000000
vt 0.625000 1.000000
vt 0.875000 0.750000
vt 0.125000 0.500000
vt 0.375000 0.250000
vt 0.625000 0.250000
vt 0.875000 0.500000
vt 0.375000 0.750000
vt 0.625000 0.750000
vt 0.375000 0.500000
vt 0.625000 0.500000
vt 0.625000 0.500000
vt 0.625000 0.750000
vt 0.375000 0.750000
vt 0.375000 0.750000
vt 0.625000 0.000000
vt 0.125000 0.750000
vt 0.625000 0.500000
vt 0.625000 1.000000
vt 0.625000 0.750000
vt 0.375000 0.500000
vt 0.625000 0.250000
vt 0.375000 1.000000
vt 0.625000 0.500000
vt 0.375000 0.500000
vt 0.875000 0.500000
vt 0.375000 0.000000
vt 0.125000 0.500000
vt 0.375000 0.500000
vt 0.625000 0.250000
vt 0.625000 0.750000
vt 0.875000 0.750000
vt 0.375000 0.250000
vt 0.375000 0.750000
vt 0.375000 0.000000
vt 0.375000 1.000000
vt 0.125000 0.750000
vt 0.625000 0.000000
vt 0.625000 1.000000
vt 0.875000 0.750000
vt 0.125000 0.500000
vt 0.375000 0.250000
vt 0.625000 0.250000
vt 0.875000 0.500000
vt 0.375000 0.750000
vt 0.625000 0.750000
vt 0.375000 0.500000
vt 0.625000 0.500000
vt 0.125000 0.500000
vt 0.625000 0.500000
vt 0.875000 0.500000
vt 0.375000 0.500000
vt 0.625000 0.500000
vt 0.625000 0.000000
vt 0.625000 0.750000
vt 0.125000 0.750000
vt 0.875000 0.750000
vt 0.375000 0.750000
vt 0.625000 0.250000
vt 0.625000 0.750000
vt 0.625000 0.250000
vt 0.625000 0.750000
vt 0.375000 0.500000
vt 0.375000 0.000000
vt 0.375000 0.250000
vt 0.375000 0.750000
vt 0.625000 0.500000
vt 0.625000 1.000000
vt 0.375000 0.750000
vt 0.375000 0.500000
vt 0.375000 0.250000
vt 0.375000 1.000000
s 0
usemtl Material.001
f 5/5/1 3/3/1 1/1/1
f 3/3/2 8/12/2 4/4/2
f 8/13/3 5/6/3 6/8/3
f 2/2/4 8/14/4 6/7/4
f 5/6/5 2/2/5 6/8/5
f 10/18/4 16/36/4 14/30/4
f 16/36/3 13/27/3 14/31/3
f 11/21/2 16/37/2 12/24/2
f 26/64/6 27/68/6 25/61/6
f 28/69/1 31/73/1 27/68/1
f 31/73/3 30/72/3 29/71/3
f 30/72/4 25/62/4 29/71/4
f 31/73/2 25/63/2 27/67/2
f 28/70/5 30/72/5 32/74/5
f 17/39/2 20/47/2 18/41/2
f 34/79/5 40/96/5 38/90/5
f 39/93/3 38/92/3 40/96/3
f 23/55/5 22/54/5 24/58/5
f 19/44/3 24/59/3 20/46/3
f 35/81/4 40/97/4 36/84/4
f 42/101/5 43/105/5 41/98/5
f 44/106/3 47/110/3 43/105/3
f 48/111/2 45/108/2 47/110/2
f 46/109/6 41/99/6 45/108/6
f 47/110/1 41/100/1 43/104/1
f 44/107/4 46/109/4 48/111/4
f 5/5/1 7/9/1 3/3/1
f 3/3/2 7/10/2 8/12/2
f 8/13/3 7/11/3 5/6/3
f 2/2/4 4/4/4 8/14/4
f 5/6/5 1/1/5 2/2/5
f 10/19/6 11/22/6 12/25/6
f 13/28/5 10/20/5 14/32/5
f 13/29/1 11/23/1 9/15/1
f 26/64/6 28/69/6 27/68/6
f 28/69/1 32/74/1 31/73/1
f 31/73/3 32/74/3 30/72/3
f 30/72/4 26/65/4 25/62/4
f 31/73/2 29/71/2 25/63/2
f 28/70/5 26/66/5 30/72/5
f 18/42/4 24/60/4 22/52/4
f 33/76/6 36/86/6 34/78/6
f 37/88/1 34/80/1 38/91/1
f 21/50/1 19/45/1 17/38/1
f 21/51/6 18/42/6 22/53/6
f 37/89/2 35/83/2 33/75/2
f 42/101/5 44/106/5 43/105/5
f 44/106/3 48/111/3 47/110/3
f 48/111/2 46/109/2 45/108/2
f 46/109/6 42/102/6 41/99/6
f 47/110/1 45/108/1 41/100/1
f 44/107/4 42/103/4 46/109/4
f 50/117/6 56/134/6 54/127/6
f 54/128/2 49/113/2 50/115/2
f 55/130/1 54/129/1 56/133/1
f 51/118/5 56/135/5 52/121/5
f 53/126/3 51/119/3 49/112/3
f 49/114/4 52/123/4 50/116/4
f 10/18/4 12/26/4 16/36/4
f 16/36/3 15/33/3 13/27/3
f 11/21/2 15/34/2 16/37/2
f 10/19/6 9/16/6 11/22/6
f 13/28/5 9/17/5 10/20/5
f 13/29/1 15/35/1 11/23/1
f 50/117/6 52/122/6 56/134/6
f 54/128/2 53/124/2 49/113/2
f 55/130/1 53/125/1 54/129/1
f 51/118/5 55/131/5 56/135/5
f 53/126/3 55/132/3 51/119/3
f 49/114/4 51/120/4 52/123/4
f 17/39/2 19/43/2 20/47/2
f 34/79/5 36/85/5 40/96/5
f 39/93/3 37/87/3 38/92/3
f 23/55/5 21/49/5 22/54/5
f 19/44/3 23/56/3 24/59/3
f 35/81/4 39/94/4 40/97/4
f 18/42/4 20/48/4 24/60/4
f 33/76/6 35/82/6 36/86/6
f 37/88/1 33/77/1 34/80/1
f 21/50/1 23/57/1 19/45/1
f 21/51/6 17/40/6 18/42/6
f 37/89/2 39/95/2 35/83/2
